<?xml version="1.0" encoding="UTF-8"?>
<svg width="12px" height="12px" viewBox="0 0 12 12" version="1.1" xmlns="http://www.w3.org/2000/svg" xmlns:xlink="http://www.w3.org/1999/xlink">
    <!-- Generator: Sketch 50.2 (55047) - http://www.bohemiancoding.com/sketch -->
    <title>cannes</title>
    <desc>Created with Sketch.</desc>
    <defs></defs>
    <g id="cannes" stroke="none" stroke-width="1" fill="none" fill-rule="evenodd">
        <path d="M11.7571421,5.26327152 C11.721528,5.25173589 11.3984383,5.15002075 11.0294806,5.15002075 C10.798493,5.15002075 10.5958867,5.19057864 10.4253239,5.27032108 C10.4219364,5.21136112 10.417725,5.15258423 10.4119572,5.09389891 C10.701447,5.01195917 11.0959479,4.84707264 11.3201607,4.52691258 C11.6822519,4.0099141 11.5120553,3.21377121 11.4914559,3.12469037 C11.4509896,2.94945835 11.2845466,2.83300323 11.1062018,2.85497589 C11.0198676,2.86550447 10.2857975,2.96804357 9.90292379,3.42351861 C9.87673969,3.37490408 9.84982316,3.32665577 9.82171648,3.27904833 C9.81988543,3.27584397 9.81787125,3.27273119 9.81594865,3.26952684 C10.0436404,3.07296303 10.3312076,2.75692287 10.3990482,2.37221814 C10.5086369,1.75057481 10.0180056,1.10100792 9.96170066,1.02904743 C9.85092182,0.887323742 9.65106212,0.852075931 9.49853519,0.947290813 C9.42474367,0.993433409 8.80218482,1.39690648 8.64810151,1.97204097 C8.51031459,1.86913566 8.36666828,1.77373766 8.21734572,1.68731184 C8.04925484,1.59008281 7.83419736,1.6474864 7.73696833,1.81548572 C7.65786674,1.95208248 7.68102958,2.11971558 7.78274472,2.22994512 C7.46478195,2.35399913 7.22354039,2.53710467 7.18481356,2.5673171 C7.04308987,2.67809594 7.00784206,2.87795564 7.10305694,3.03048255 C7.14782624,3.10216837 7.52905198,3.69048647 8.07699533,3.86608469 C8.12377878,4.10677692 8.25534011,4.5949363 8.58428923,4.89944082 C8.52505458,5.13738648 8.43789634,5.63543355 8.60736053,6.05044226 C8.45309409,6.24105512 8.16369579,6.65551452 8.14190624,7.10329912 C7.89819275,7.22222616 7.3885185,7.51931491 7.21667393,7.991361 C7.08676056,8.34832526 7.16915803,8.75289694 7.2648307,9.03625277 C6.86968894,9.17907509 6.44387699,9.2571696 6.00002916,9.2571696 C5.55627288,9.2571696 5.13036939,9.17907509 4.73522763,9.03625277 C4.83090029,8.75289694 4.91338933,8.34832526 4.7833844,7.991361 C4.6116314,7.51931491 4.10195712,7.22222616 3.85815208,7.10329912 C3.83636253,6.65560606 3.54696423,6.24105512 3.3926978,6.05044226 C3.56216198,5.63543355 3.47509529,5.13738648 3.41576909,4.89944082 C3.74480976,4.5949363 3.87627954,4.10677692 3.92315456,3.86608469 C4.47100634,3.69039492 4.85223208,3.10216837 4.89700138,3.03048255 C4.99221626,2.87795564 4.95696845,2.67809594 4.81524476,2.5673171 C4.77660948,2.53710467 4.53527638,2.35399913 4.21740515,2.22994512 C4.31912029,2.11971558 4.34228313,1.95208248 4.26318154,1.81548572 C4.16595251,1.6474864 3.9509866,1.58999126 3.78289572,1.68722029 C3.63348159,1.77364611 3.4898353,1.86913566 3.35195682,1.97194942 C3.19796505,1.39690648 2.57531466,0.993341862 2.50152314,0.947290813 C2.34899621,0.852075931 2.1491365,0.887232195 2.03835766,1.02895588 C1.9820527,1.10091635 1.4914214,1.75048327 1.60101008,2.37212657 C1.66885068,2.75683132 1.95641793,3.07287149 2.18410967,3.26943529 C2.18218707,3.27263965 2.1801729,3.27575243 2.17834184,3.27886521 C2.15023516,3.32656422 2.12331863,3.37481251 2.09713453,3.42342704 C1.71426085,2.96795202 0.980190725,2.86541292 0.89385648,2.85479278 C0.715145471,2.83291168 0.549068733,2.94936681 0.50860242,3.1245988 C0.488003029,3.21367964 0.317897993,4.00982253 0.679897637,4.52682104 C0.90411039,4.84698107 1.29861127,5.01195917 1.58810112,5.09380734 C1.58233332,5.15249268 1.57812188,5.21126955 1.57464288,5.27022953 C1.40417161,5.19057864 1.20156534,5.14992921 0.97057769,5.14992921 C0.601620035,5.14992921 0.278530289,5.25164434 0.242916267,5.26317998 C0.0718041446,5.31884406 -0.0296363255,5.49462538 0.00771720503,5.67049825 C0.0267601814,5.75994532 0.209041754,6.55334162 0.755611784,6.86901558 C0.94137235,6.97622388 1.17162757,7.03060621 1.43978566,7.03060621 C1.43987721,7.03060621 1.43987721,7.03060621 1.43987721,7.03060621 C1.57638237,7.03060621 1.70647887,7.01669019 1.81817325,6.99856275 C1.83785708,7.05431839 1.85845647,7.10961626 1.88024602,7.16427326 C1.88006293,7.16427326 1.87987981,7.16427326 1.87969672,7.16427326 C1.28469525,7.16427326 0.731899611,7.66405984 0.67083393,7.72100565 C0.539272581,7.84368639 0.521602902,8.04583491 0.629818289,8.18957274 C0.684841498,8.2625403 1.1853605,8.90459987 1.81414493,8.95962311 C1.84389958,8.96218658 1.87456976,8.96355988 1.90514837,8.96355988 C1.90523992,8.96355988 1.90514837,8.96355988 1.90523992,8.96355988 C2.26266194,8.96355988 2.60461154,8.78329246 2.83413435,8.62701187 C2.8755162,8.66921772 2.91772202,8.71069112 2.96075183,8.75134055 C2.41994961,9.00210359 2.12991043,9.68682675 2.09731765,9.76766785 C2.02993481,9.93447701 2.09942337,10.1251814 2.25817586,10.2096846 C2.30917077,10.2367842 2.77004741,10.4745468 3.24941771,10.4745468 C3.24941771,10.4745468 3.24941771,10.4745468 3.24950926,10.4745468 C3.39681769,10.4745468 3.53396373,10.4518417 3.65701065,10.4070724 C4.02422882,10.2734054 4.28570353,9.93493477 4.43969528,9.67648129 C4.56603811,9.72418028 4.69503595,9.766203 4.82650576,9.80227481 C4.62188531,10.0103743 4.43447678,10.2751449 4.270048,10.592833 C4.18078405,10.7653184 4.24825843,10.9774462 4.42065231,11.0667101 C4.59313773,11.1558825 4.80526551,11.0884997 4.8944379,10.9160143 C5.20883013,10.3086532 5.61175387,9.96029488 6.00002916,9.96029488 C6.38821291,9.96029488 6.7912282,10.3086532 7.10562042,10.9161058 C7.16815097,11.0368639 7.29092323,11.1060778 7.41809002,11.1060778 C7.47256393,11.1060778 7.52777025,11.0934435 7.57940602,11.0667101 C7.75189144,10.9774462 7.81927428,10.7653184 7.73001032,10.592833 C7.56558154,10.2751449 7.37817302,10.0103743 7.17355257,9.80227481 C7.30502237,9.766203 7.43402022,9.72418028 7.56027147,9.67648129 C7.71435479,9.93493477 7.97573796,10.2734054 8.34313922,10.4070724 C8.4660946,10.4518417 8.60324064,10.4745468 8.75064061,10.4745468 C9.23001092,10.4745468 9.69079601,10.2367842 9.74179092,10.2095931 C9.90063496,10.1251814 9.97003197,9.93447701 9.90264913,9.76766785 C9.87005634,9.68682675 9.58001717,9.00210359 9.03930649,8.751249 C9.0823363,8.71069112 9.12445058,8.66921772 9.16583243,8.62692032 C9.39535523,8.78329246 9.73739638,8.96355988 10.0948184,8.96355988 C10.125397,8.96355988 10.1559756,8.96218658 10.1859134,8.95962311 C10.8146978,8.90459987 11.3151253,8.2625403 11.3701485,8.1894812 C11.4783639,8.04583491 11.4606942,7.84368639 11.3291328,7.72100565 C11.2680671,7.66396829 10.7152715,7.16427326 10.1202701,7.16427326 C10.1200869,7.16427326 10.1199038,7.16427326 10.1197208,7.16427326 C10.1415103,7.10952471 10.1621097,7.05431839 10.1817935,6.99856275 C10.2934879,7.01659864 10.423676,7.03051467 10.5601811,7.03051467 C10.8283392,7.03051467 11.0585944,6.97622388 11.244355,6.86892403 C11.790925,6.55334162 11.9732066,5.75994532 11.9922496,5.67049825 C12.0296946,5.49471693 11.9282542,5.31893561 11.7571421,5.26327152 Z M8.99993881,6.71200257 C9.11959826,6.84988105 9.22286979,7.01147169 9.23513787,7.15090656 C9.24731438,7.29043299 9.1737975,7.46740449 9.07995592,7.62386817 C8.96276837,7.48882782 8.85702494,7.32696253 8.84457376,7.18514729 C8.83239723,7.04552932 8.90609723,6.8683747 8.99993881,6.71200257 Z M9.67752086,6.12579017 C9.51428226,6.05300574 9.35003661,5.95101594 9.27880854,5.82769435 C9.20877067,5.70638693 9.20071403,5.51485854 9.21957391,5.3334925 C9.38281249,5.40627696 9.54705817,5.50835829 9.61828621,5.63177144 C9.6883241,5.75298729 9.69647229,5.94442414 9.67752086,6.12579017 Z M8.83624246,3.99151198 C8.84704567,3.99132888 8.85794046,3.99114579 8.86901834,3.99114579 C9.06851183,3.99114579 9.22982782,4.02721757 9.32339474,4.09276935 C9.43811036,4.17306113 9.52627568,4.34289152 9.58587654,4.51510228 C9.57498176,4.5152854 9.56408697,4.51537694 9.55300909,4.51537694 C9.3535156,4.51537694 9.19210806,4.47930514 9.09863268,4.41384493 C8.98400862,4.33355313 8.89584331,4.16363119 8.83624246,3.99151198 Z M10.4231266,3.89876903 C10.50351,3.78405341 10.673615,3.69579654 10.8459173,3.63619568 C10.8489386,3.81499824 10.8259588,4.00698441 10.7442937,4.12362263 C10.6639104,4.2382467 10.4938969,4.32650357 10.321503,4.38610443 C10.3184818,4.20739342 10.3414616,4.01540727 10.4231266,3.89876903 Z M9.3205566,2.18206304 C9.34490965,2.04418455 9.46182253,1.89220695 9.59283455,1.76549792 C9.67111215,1.92617304 9.73135389,2.10991943 9.70663465,2.2501783 C9.6822816,2.38796521 9.56546027,2.53985124 9.4343567,2.6667434 C9.35617062,2.50597673 9.29592891,2.32223031 9.3205566,2.18206304 Z M7.92190493,2.93709872 C8.05502267,2.87200472 8.20764112,2.8171646 8.33984332,2.8171646 C8.3633724,2.8171646 8.38552816,2.81899566 8.40594443,2.8225662 C8.54382289,2.84691925 8.69570895,2.96374058 8.82241798,3.09466106 C8.69003269,3.1594804 8.53759731,3.2139543 8.40393026,3.2139543 C8.3804012,3.2139543 8.35815387,3.21212325 8.33773762,3.20855268 C8.2001338,3.1842912 8.04852242,3.06783608 7.92190493,2.93709872 Z M7.87741027,8.23187014 C7.92529237,8.10021724 8.06692452,7.97085318 8.21807815,7.86877183 C8.26834061,8.04427849 8.29360918,8.23434204 8.24572707,8.36599494 C8.19784499,8.49764781 8.05621285,8.62701187 7.90496767,8.72918479 C7.85479675,8.55367811 7.82943664,8.36361456 7.87741027,8.23187014 Z M2.90142564,4.41384493 C2.80795027,4.47930514 2.64663427,4.51537694 2.44714078,4.51537694 C2.43615445,4.51537694 2.42535123,4.5152854 2.41463956,4.51510228 C2.47295867,4.34637054 2.56020846,4.17425133 2.67666358,4.09267781 C2.7702305,4.02721757 2.93154649,3.99114579 3.13103999,3.99114579 C3.14211787,3.99114579 3.15301265,3.99132888 3.16381587,3.99151198 C3.10421501,4.1638143 3.01604971,4.3336447 2.90142564,4.41384493 Z M2.72124979,5.82769435 C2.65121192,5.94900179 2.48934662,6.05181553 2.32262901,6.12615641 C2.30367758,5.94460726 2.31173422,5.75298729 2.38177211,5.63158833 C2.45180998,5.51028091 2.61385839,5.40746714 2.78039286,5.33312629 C2.79943584,5.51467544 2.79128765,5.70638693 2.72124979,5.82769435 Z M2.765012,7.15099811 C2.77718853,7.01147169 2.88036849,6.8499726 2.99984487,6.71227723 C3.0918554,6.86553656 3.16784419,7.04333205 3.15548456,7.18523886 C3.14330805,7.32476526 3.03994498,7.48635592 2.9202855,7.62423438 C2.82644391,7.46767915 2.75274394,7.29052453 2.765012,7.15099811 Z M4.12264805,8.23196168 C4.17062168,8.36361456 4.14526157,8.55367811 4.09509065,8.72918479 C3.94384548,8.62701187 3.80221333,8.49764781 3.75433125,8.36599494 C3.70644915,8.23434204 3.73180926,8.04418694 3.78188863,7.86877183 C3.93313381,7.97094473 4.07476595,8.10030879 4.12264805,8.23196168 Z M3.6623207,3.20855268 C3.64190445,3.21212325 3.61974867,3.2139543 3.59621961,3.2139543 L3.59612806,3.2139543 C3.46401741,3.2139543 3.31149048,3.15920576 3.17864743,3.09420328 C3.30270142,2.96612094 3.4543128,2.84719391 3.59420544,2.8225662 C3.61453016,2.81899566 3.63677749,2.8171646 3.66030655,2.8171646 C3.79232566,2.8171646 3.94485256,2.87191315 4.07778719,2.93691563 C3.95373317,3.06508951 3.80212179,3.18392499 3.6623207,3.20855268 Z M2.40676601,1.76558947 C2.5353061,1.88973502 2.65478246,2.04180417 2.67950172,2.18206304 C2.7037632,2.32003305 2.64590185,2.50277238 2.56597629,2.66692651 C2.43478115,2.54003436 2.31777672,2.38805676 2.29342367,2.2501783 C2.26907064,2.11220827 2.32702354,1.92946894 2.40676601,1.76558947 Z M1.25585612,4.12362263 C1.1754728,4.00881547 1.15075354,3.8185688 1.15377478,3.63619568 C1.32635177,3.69570499 1.49654835,3.78396186 1.5769317,3.89876903 C1.65722347,4.01348464 1.68203428,4.20345665 1.67901304,4.38582977 C1.51000662,4.32751066 1.3375212,4.24016933 1.25585612,4.12362263 Z M1.43996875,6.3275725 C1.43996875,6.3275725 1.43987721,6.3275725 1.43987721,6.3275725 C1.29861127,6.3275725 1.18352945,6.30422654 1.10717442,6.26018966 C0.986050102,6.19015178 0.883327905,6.02856114 0.808987055,5.86220976 C0.860805912,5.8567166 0.915371387,5.85314603 0.97057769,5.85314603 C1.11175207,5.85314603 1.22674235,5.87649199 1.3031889,5.92052887 C1.42431322,5.99056674 1.52703544,6.15215737 1.60137629,6.31850877 C1.54955741,6.32409349 1.49508351,6.3275725 1.43996875,6.3275725 Z M1.90523992,8.26052615 C1.89489446,8.26052615 1.88491522,8.26015994 1.87539373,8.2592444 C1.73595885,8.24706788 1.57464288,8.14407102 1.43703906,8.02468621 C1.57922051,7.93954212 1.74319153,7.86749008 1.87969672,7.86749008 C1.88995063,7.86749008 1.90002142,7.86785632 1.90954291,7.86868029 C2.04888624,7.88094835 2.21020221,7.98394521 2.34780603,8.10323848 C2.20864582,8.18719238 2.04531567,8.26052615 1.90523992,8.26052615 Z M3.41650152,9.74642761 C3.37081668,9.76309022 3.31460329,9.77151308 3.24950926,9.77151308 L3.24941771,9.77151308 C3.14211787,9.77151308 3.02602895,9.74853333 2.92019395,9.71804626 C3.02016958,9.57028007 3.14889276,9.42672533 3.28237671,9.37811083 C3.3281531,9.36144821 3.38436651,9.35302536 3.44955208,9.35302536 C3.55694348,9.35302536 3.67312394,9.37609665 3.77914206,9.40658372 C3.67696914,9.55746269 3.54787975,9.69863707 3.41650152,9.74642761 Z M8.75073216,9.77151308 C8.68554658,9.77151308 8.62933319,9.76309022 8.58364835,9.74651918 C8.45227012,9.69863707 8.32308918,9.55746269 8.22100784,9.40658372 C8.32693439,9.3761882 8.44320642,9.35302536 8.55059781,9.35302536 C8.61578338,9.35302536 8.67199677,9.36144821 8.71777316,9.37811083 C8.84915139,9.42599291 8.97824079,9.56716729 9.08032213,9.71795471 C8.97439558,9.74844178 8.858032,9.77151308 8.75073216,9.77151308 Z M10.5629277,8.02477776 C10.4252323,8.14416257 10.2640079,8.24706788 10.1247561,8.2592444 C10.1152347,8.26015994 10.1051639,8.26052615 10.0949099,8.26052615 C9.95492577,8.26052615 9.79168717,8.18719238 9.65261851,8.10342159 C9.78747573,7.98650871 9.94897482,7.88113146 10.0905154,7.86877183 C10.1001285,7.86785632 10.1101077,7.86749008 10.1203616,7.86749008 C10.2605289,7.86749008 10.423859,7.94091542 10.5629277,8.02477776 Z M10.8929754,6.26009809 C10.8165289,6.30422654 10.701447,6.3275725 10.5602727,6.3275725 C10.5050664,6.3275725 10.4505925,6.32409349 10.3987736,6.31850877 C10.4731144,6.15206582 10.5757451,5.99056674 10.6968694,5.92062042 C10.773316,5.87649199 10.8883062,5.85314603 11.0294806,5.85314603 C11.0846869,5.85314603 11.1392524,5.85662505 11.1910713,5.86220976 C11.1167304,6.02865269 11.0140998,6.19015178 10.8929754,6.26009809 Z" id="Shape" fill="#414141" fill-rule="nonzero"></path>
    </g>
</svg>