<?xml version="1.0" encoding="UTF-8"?>
<svg width="12px" height="12px" viewBox="0 0 12 12" version="1.1" xmlns="http://www.w3.org/2000/svg" xmlns:xlink="http://www.w3.org/1999/xlink">
    <!-- Generator: Sketch 50.2 (55047) - http://www.bohemiancoding.com/sketch -->
    <title>globe</title>
    <desc>Created with Sketch.</desc>
    <defs></defs>
    <g id="globe" stroke="none" stroke-width="1" fill="none" fill-rule="evenodd">
        <path d="M11.9856,5.6 C11.7888,2.6048 9.3952,0.2104 6.4,0.0136 L6.4,0 L6,0 L5.6,0 L5.6,0.0136 C2.6048,0.2104 0.2104,2.6048 0.0136,5.6 L0,5.6 L0,6 L0,6.4 L0.0136,6.4 C0.2104,9.3952 2.6048,11.7888 5.6,11.9856 L5.6,12 L6,12 L6.4,12 L6.4,11.9856 C9.3952,11.7888 11.7888,9.3952 11.9856,6.4 L12,6.4 L12,6 L12,5.6 L11.9856,5.6 Z M3.756,1.308 C3.3696,1.8216 3.0488,2.4656 2.8152,3.2 L1.6168,3.2 C2.1384,2.3864 2.8792,1.728 3.756,1.308 Z M1.1984,4 L2.6048,4 C2.4976,4.5056 2.4296,5.0424 2.408,5.6 L0.8152,5.6 C0.8576,5.0368 0.9904,4.4984 1.1984,4 Z M0.8152,6.4 L2.408,6.4 C2.4296,6.9576 2.4976,7.4944 2.6048,8 L1.1984,8 C0.9904,7.5016 0.8576,6.9632 0.8152,6.4 Z M1.6168,8.8 L2.8144,8.8 C3.048,9.5344 3.3688,10.1784 3.756,10.692 C2.8792,10.272 2.1384,9.6144 1.6168,8.8 Z M5.6,11.1488 C4.7776,10.9288 4.0696,10.0456 3.64,8.8 L5.6,8.8 L5.6,11.1488 Z M5.6,8 L3.4152,8 C3.3024,7.5016 3.2312,6.9632 3.208,6.4 L5.6,6.4 L5.6,8 Z M5.6,5.6 L3.208,5.6 C3.2312,5.0368 3.3024,4.4984 3.4152,4 L5.6,4 L5.6,5.6 Z M5.6,3.2 L3.64,3.2 C4.0696,1.9544 4.7776,1.0712 5.6,0.852 L5.6,3.2 Z M10.3832,3.2 L9.1864,3.2 C8.952,2.4656 8.632,1.8216 8.244,1.308 C9.12,1.728 9.8616,2.3864 10.3832,3.2 Z M6.4,0.852 C7.2216,1.0712 7.9304,1.9544 8.36,3.2 L6.4,3.2 L6.4,0.852 Z M6.4,4 L8.584,4 C8.6976,4.4984 8.7672,5.0368 8.792,5.6 L6.4,5.6 L6.4,4 Z M6.4,6.4 L8.792,6.4 C8.7688,6.9632 8.6976,7.5016 8.584,8 L6.4,8 L6.4,6.4 Z M6.4,11.1488 L6.4,8.8 L8.36,8.8 C7.9304,10.0456 7.2216,10.9288 6.4,11.1488 Z M8.244,10.692 C8.6304,10.1776 8.952,9.5344 9.1864,8.8 L10.3832,8.8 C9.8616,9.6144 9.12,10.272 8.244,10.692 Z M10.8016,8 L9.3952,8 C9.5024,7.4944 9.5704,6.9576 9.592,6.4 L11.184,6.4 C11.1424,6.9632 11.0096,7.5016 10.8016,8 Z M9.592,5.6 C9.5704,5.0424 9.5024,4.5056 9.3952,4 L10.8016,4 C11.0096,4.4984 11.1424,5.0368 11.1848,5.6 L9.592,5.6 Z" id="Shape" fill="#414141" fill-rule="nonzero"></path>
    </g>
</svg>