<?xml version="1.0" encoding="UTF-8"?>
<svg width="12px" height="12px" viewBox="0 0 12 12" version="1.1" xmlns="http://www.w3.org/2000/svg" xmlns:xlink="http://www.w3.org/1999/xlink">
    <!-- Generator: Sketch 50.2 (55047) - http://www.bohemiancoding.com/sketch -->
    <title>medal</title>
    <desc>Created with Sketch.</desc>
    <defs></defs>
    <g id="medal" stroke="none" stroke-width="1" fill="none" fill-rule="evenodd">
        <path d="M8.88341311,5.41668933 L8.29712939,4.61453544 C8.26033334,4.56302097 8.25788027,4.49188194 8.29467632,4.44036747 L8.86869469,3.63085438 C8.92020916,3.55726228 8.89567846,3.45423334 8.81718022,3.41253115 L7.94143424,2.94399479 C7.88501363,2.91455795 7.85312372,2.85077813 7.86538907,2.78699831 L8.02974476,1.80822339 C8.04446318,1.71991287 7.97823029,1.63650849 7.8874667,1.63405542 L6.89642643,1.59235323 C6.83264661,1.58990016 6.776226,1.5457449 6.75905451,1.48441815 L6.48431067,0.527720861 C6.45977997,0.441863411 6.36411024,0.395255082 6.28070587,0.432051131 L5.36816383,0.824542328 C5.30929015,0.849073028 5.2406042,0.834354608 5.19644894,0.787746278 L4.53412004,0.0493722149 C4.47279329,-0.0168606745 4.36976435,-0.0168606745 4.3084376,0.0518252849 L3.65592099,0.800011628 C3.6142188,0.849073028 3.54553284,0.863791447 3.48665916,0.839260748 L2.56921099,0.461487971 C2.48580661,0.427144991 2.39258995,0.473753321 2.36805925,0.55961077 L2.10558076,1.51630806 C2.08840927,1.57763481 2.03444173,1.62179007 1.97066192,1.62669621 L0.979621644,1.68311682 C0.888858055,1.68802296 0.825078236,1.77142734 0.839796656,1.85973786 L1.01887076,2.83605971 C1.03113611,2.89983953 0.999246204,2.96361935 0.945278665,2.99305619 L0.0768918927,3.4738579 C-0.00160634657,3.51801316 -0.0236839764,3.6210421 0.0278304932,3.69218113 L0.614114218,4.49433501 C0.650910267,4.54584948 0.653363337,4.61698851 0.616567288,4.66850298 L0.042548913,5.47801608 C-0.00896555651,5.55160817 0.0155651433,5.65463711 0.0940633825,5.6963393 L0.969809365,6.16487567 C1.02622997,6.19431251 1.05811988,6.25809233 1.04585453,6.32187215 L0.881498845,7.30064707 C0.866780425,7.38895759 0.933013315,7.47236197 1.0237769,7.47481504 L2.01481717,7.51651723 C2.07859699,7.5189703 2.1350176,7.56312556 2.15218909,7.62445231 L2.429386,8.57869653 C2.4539167,8.66455398 2.54958643,8.71116231 2.63299081,8.67436626 L3.54553284,8.28187506 C3.60440652,8.25734436 3.67309248,8.27206278 3.71724774,8.31867111 L4.37957663,9.05704517 C4.44090338,9.12327806 4.54393232,9.12327806 4.60525907,9.0545921 L5.25777569,8.30640576 C5.29947787,8.25734436 5.36816383,8.24262594 5.42703751,8.26715664 L6.34448569,8.64492942 C6.42789006,8.6792724 6.52110672,8.63266407 6.54563742,8.54680662 L6.80811591,7.59010933 C6.8252874,7.52878258 6.87925494,7.48462732 6.94303476,7.47972118 L7.93407503,7.42330057 C8.02483862,7.41839443 8.08861844,7.33499005 8.07390002,7.24667953 L7.89482591,6.27035768 C7.88256056,6.20657786 7.91445047,6.14279804 7.96841801,6.1133612 L8.83680478,5.63255948 C8.91530302,5.59331036 8.93738065,5.49028142 8.88341311,5.41668933 Z M4.45807487,7.2491326 C2.97396754,7.2491326 1.76460404,6.0397691 1.76460404,4.55566176 C1.76460404,3.07155443 2.97396754,1.86219093 4.45807487,1.86219093 C5.94218221,1.86219093 7.15154571,3.07155443 7.15154571,4.55566176 C7.15154571,6.04222217 5.94218221,7.2491326 4.45807487,7.2491326 Z M6.88416108,8.99081228 C6.74188302,9.13554341 6.54318435,9.22140086 6.32976727,9.22140086 C6.2537221,9.22140086 6.17767693,9.20913551 6.1065379,9.18951095 L5.47364584,8.99817149 L4.98548492,9.44463023 C4.96831343,9.45934865 4.95359501,9.47406707 4.93642352,9.48633242 L5.72140591,11.9197778 C5.74838968,12.0056353 5.85877783,12.0252598 5.91519844,11.9541208 L6.48676374,11.2206529 C6.51374751,11.1838568 6.56280891,11.1691384 6.6045111,11.1814038 L7.4949755,11.4414292 C7.58083295,11.4659599 7.65933119,11.3850086 7.63234742,11.3016042 L6.88416108,8.99081228 Z M3.44495697,8.99817149 L2.81206492,9.18951095 C2.73847282,9.21158858 2.66488072,9.22140086 2.58883555,9.22140086 C2.37541846,9.22140086 2.17917286,9.13554341 2.03444173,8.99081228 L1.28625539,11.3040573 C1.25927162,11.3899147 1.33776986,11.468413 1.42362731,11.4438823 L2.31409171,11.1838568 C2.35824697,11.1715915 2.4048553,11.1863099 2.43183907,11.223106 L3.00340438,11.9565739 C3.05737192,12.0277129 3.17021313,12.0080884 3.1971969,11.9222309 L3.9821793,9.48878549 C3.96500781,9.47652014 3.94783632,9.46180172 3.9331179,9.4470833 L3.44495697,8.99817149 Z M6.05502343,3.88597366 L5.03945246,3.81238156 L4.65677354,2.87040269 C4.58563451,2.69378165 4.3329683,2.69378165 4.26182927,2.87040269 L3.87915036,3.81238156 L2.86357939,3.88597366 C2.67223993,3.90069208 2.59619476,4.13863987 2.74092589,4.26129337 L3.51854907,4.91871612 L3.27569514,5.90730332 C3.22908681,6.09373664 3.43269162,6.24092084 3.59459424,6.14034497 L4.45807487,5.60312264 L5.3215555,6.14034497 C5.48345812,6.24092084 5.68706293,6.09373664 5.6404546,5.90730332 L5.39760067,4.91871612 L6.17522386,4.26129337 C6.32240806,4.13863987 6.24636289,3.90069208 6.05502343,3.88597366 Z" id="Combined-Shape" fill="#414141" fill-rule="nonzero"></path>
    </g>
</svg>