<?xml version="1.0" encoding="UTF-8"?>
<svg width="12px" height="12px" viewBox="0 0 12 12" version="1.1" xmlns="http://www.w3.org/2000/svg" xmlns:xlink="http://www.w3.org/1999/xlink">
    <!-- Generator: Sketch 50.2 (55047) - http://www.bohemiancoding.com/sketch -->
    <title>oscars</title>
    <desc>Created with Sketch.</desc>
    <defs></defs>
    <g id="oscars" stroke="none" stroke-width="1" fill="none" fill-rule="evenodd">
        <path d="M0.882740381,9.29102796 C0.882740381,9.52352327 1.58061673,9.71248671 2.44110315,9.71248671 C3.30178479,9.71248671 3.99927072,9.52352327 3.99927072,9.29102796 C3.99927072,9.10694477 3.56180473,8.95077663 2.95313942,8.89318963 C2.96504725,8.82096187 2.96387598,8.76610781 2.96387598,8.76610781 C2.96387598,8.76610781 2.83269475,8.14260654 3.00760306,7.78107731 C3.183097,7.4201337 3.11731118,6.88350095 3.0735841,6.80697857 C3.0294666,6.73026097 2.97519817,6.32559029 3.0735841,6.16102812 C3.17197002,5.99685637 3.20515575,5.624981 3.25942418,5.05652899 C3.31408303,4.48788177 3.15771968,4.3771976 3.15771968,4.3771976 L3.15771968,3.90713152 L3.25942418,3.90713152 C3.58776768,3.88526798 3.63149476,3.20691264 3.67522184,2.90062789 C3.71953455,2.59414793 3.93836514,2.3095315 3.67522184,1.94819748 C3.41266416,1.58725388 2.77764548,1.45568222 2.77764548,1.45568222 L2.78877246,1.12733872 C2.78877246,1.12733872 2.95860531,0.985030509 2.94240287,0.492320044 C2.92541958,0 2.51235487,0 2.51235487,0 L2.37004665,0 C2.37004665,0 1.95698194,0 1.94058428,0.492515254 C1.92418663,0.985225719 2.09382426,1.12753393 2.09382426,1.12753393 L2.10475603,1.45568222 C2.10475603,1.45568222 1.46993257,1.58705867 1.20717968,1.94819748 C0.944426794,2.30933629 1.16325739,2.59414793 1.20717968,2.90062789 C1.25129718,3.20671743 1.29502426,3.88507277 1.62336776,3.90713152 L1.72526747,3.90713152 L1.72526747,4.3771976 C1.72526747,4.3771976 1.56870891,4.48807698 1.62336776,5.05652899 C1.6778314,5.624981 1.7106267,5.99685637 1.80920784,6.16102812 C1.90759376,6.32539508 1.85273971,6.73006576 1.80920784,6.80717378 C1.76509034,6.88389137 1.69949972,7.42032891 1.87479846,7.78127252 C2.05009719,8.14241133 1.91872074,8.7659126 1.91872074,8.7659126 C1.91872074,8.7659126 1.91735427,8.82115708 1.92926209,8.89338484 C1.32040158,8.95116705 0.882740381,9.10694477 0.882740381,9.29102796 Z M4.20209408,10.2069541 C4.2581194,10.137264 4.28759613,10.0556662 4.2850584,9.96040362 C4.2754931,9.56393177 4.11054051,9.47725846 4.06466612,9.46066559 C3.67873562,9.81672894 2.63436122,9.83859248 2.38761557,9.83859248 C2.14965437,9.83859248 1.17262748,9.81692415 0.757025032,9.49619384 C0.691239206,9.55026706 0.60358984,9.67520157 0.596562274,9.95981799 C0.594414962,10.0550806 0.623501277,10.136288 0.679136175,10.2061732 C0.259434314,10.3221281 0,10.4794675 0,10.6524237 L0,11.4734776 C0,11.4734776 0.481388275,12.0315835 2.58302095,11.998593 C4.68465362,11.9657977 4.8820111,11.326094 4.8820111,11.326094 L4.8820111,10.6086966 L4.87361706,10.6086966 C4.83418461,10.4533093 4.58490122,10.3133436 4.20209408,10.2069541 Z" id="Combined-Shape" fill="#414141" fill-rule="nonzero"></path>
    </g>
</svg>